<svg viewBox="0 0 390 780" xmlns="http://www.w3.org/2000/svg" font-family="-apple-system,BlinkMacSystemFont,system-ui,sans-serif">
  <rect width="390" height="780" fill="white"/>
  <!-- Status bar -->
  <text x="20" y="22" font-size="12" font-weight="600" fill="#111827">10:35</text>
  <!-- Header -->
  <text x="20" y="62" font-size="22" font-weight="700" fill="#111827">Requests</text>
  <circle cx="354" cy="52" r="20" fill="#F3F4F6"/>
  <line x1="346" y1="47" x2="362" y2="47" stroke="#6B7280" stroke-width="1.8" stroke-linecap="round"/>
  <line x1="346" y1="52" x2="362" y2="52" stroke="#6B7280" stroke-width="1.8" stroke-linecap="round"/>
  <line x1="346" y1="57" x2="357" y2="57" stroke="#6B7280" stroke-width="1.8" stroke-linecap="round"/>
  <!-- Search bar -->
  <rect x="20" y="82" width="350" height="44" rx="22" fill="#F9FAFB" stroke="#E5E7EB" stroke-width="1.5"/>
  <circle cx="44" cy="104" r="7" stroke="#9CA3AF" stroke-width="1.5" fill="none"/>
  <line x1="49" y1="109" x2="53" y2="113" stroke="#9CA3AF" stroke-width="1.5" stroke-linecap="round"/>
  <text x="62" y="109" font-size="13" fill="#9CA3AF">Search requests...</text>
  <!-- Category chips -->
  <rect x="20" y="142" width="44" height="30" rx="15" fill="#3DBE8B"/>
  <text x="42" y="162" font-size="13" font-weight="600" fill="white" text-anchor="middle">All</text>
  <rect x="72" y="142" width="96" height="30" rx="15" fill="white" stroke="#E5E7EB" stroke-width="1.5"/>
  <text x="120" y="162" font-size="12" fill="#374151" text-anchor="middle">Art &amp; Crafts</text>
  <rect x="176" y="142" width="92" height="30" rx="15" fill="white" stroke="#E5E7EB" stroke-width="1.5"/>
  <text x="222" y="162" font-size="12" fill="#374151" text-anchor="middle">Automotive</text>
  <rect x="276" y="142" width="90" height="30" rx="15" fill="white" stroke="#E5E7EB" stroke-width="1.5"/>
  <text x="321" y="162" font-size="12" fill="#374151" text-anchor="middle">Baby &amp; Kids</text>

  <!-- Request card 1: Winter Coats -->
  <rect x="20" y="190" width="350" height="144" rx="14" fill="white" stroke="#E5E7EB" stroke-width="1.5"/>
  <!-- In Progress badge -->
  <rect x="270" y="206" width="84" height="26" rx="13" fill="#FEF3C7"/>
  <text x="312" y="224" font-size="11" font-weight="600" fill="#D97706" text-anchor="middle">In Progress</text>
  <text x="32" y="226" font-size="16" font-weight="700" fill="#111827">Winter Coats</text>
  <!-- Org icon + name -->
  <rect x="32" y="237" width="14" height="14" rx="2" fill="none" stroke="#3DBE8B" stroke-width="1.2"/>
  <line x1="32" y1="241" x2="46" y2="241" stroke="#3DBE8B" stroke-width="1"/>
  <line x1="36" y1="237" x2="36" y2="251" stroke="#3DBE8B" stroke-width="1"/>
  <text x="52" y="249" font-size="13" font-weight="600" fill="#3DBE8B">Gateway 360</text>
  <text x="32" y="272" font-size="13" fill="#6B7280">These are needed for kids aged 2-3</text>
  <!-- Tags row -->
  <rect x="32" y="286" width="30" height="26" rx="13" fill="#F3F4F6"/>
  <text x="47" y="304" font-size="11" fill="#6B7280" text-anchor="middle">🏷</text>
  <rect x="70" y="286" width="88" height="26" rx="13" fill="#F3F4F6"/>
  <text x="81" y="304" font-size="11" fill="#6B7280"># 10 needed</text>
  <rect x="166" y="286" width="72" height="26" rx="13" fill="#F3F4F6"/>
  <text x="177" y="304" font-size="11" fill="#6B7280">📅 Jun 29</text>
  <!-- Heart -->
  <circle cx="355" cy="299" r="14" fill="#F0FDF9" stroke="#D1FAE5" stroke-width="1"/>
  <path d="M349 299 C349 296.5 350.5 295 352 295 C353 295 354 295.8 355 297 C356 295.8 357 295 358 295 C359.5 295 361 296.5 361 299 C361 302 355 306 355 306 C355 306 349 302 349 299Z" fill="none" stroke="#3DBE8B" stroke-width="1.5"/>

  <!-- Request card 2: Shirts For School Kids -->
  <rect x="20" y="350" width="350" height="144" rx="14" fill="white" stroke="#E5E7EB" stroke-width="1.5"/>
  <rect x="270" y="366" width="84" height="26" rx="13" fill="#FEF3C7"/>
  <text x="312" y="384" font-size="11" font-weight="600" fill="#D97706" text-anchor="middle">In Progress</text>
  <text x="32" y="386" font-size="16" font-weight="700" fill="#111827">Shirts For School Kids</text>
  <rect x="32" y="397" width="14" height="14" rx="2" fill="none" stroke="#3DBE8B" stroke-width="1.2"/>
  <line x1="32" y1="401" x2="46" y2="401" stroke="#3DBE8B" stroke-width="1"/>
  <line x1="36" y1="397" x2="36" y2="411" stroke="#3DBE8B" stroke-width="1"/>
  <text x="52" y="409" font-size="13" font-weight="600" fill="#3DBE8B">Gateway 360</text>
  <text x="32" y="432" font-size="13" fill="#6B7280">Sizes S–XL for primary school children</text>
  <rect x="32" y="446" width="30" height="26" rx="13" fill="#F3F4F6"/>
  <text x="47" y="464" font-size="11" fill="#6B7280" text-anchor="middle">🏷</text>
  <rect x="70" y="446" width="88" height="26" rx="13" fill="#F3F4F6"/>
  <text x="81" y="464" font-size="11" fill="#6B7280"># 10 needed</text>
  <rect x="166" y="446" width="70" height="26" rx="13" fill="#F3F4F6"/>
  <text x="177" y="464" font-size="11" fill="#6B7280">📅 Jun 11</text>
  <circle cx="355" cy="459" r="14" fill="#F0FDF9" stroke="#D1FAE5" stroke-width="1"/>
  <path d="M349 459 C349 456.5 350.5 455 352 455 C353 455 354 455.8 355 457 C356 455.8 357 455 358 455 C359.5 455 361 456.5 361 459 C361 462 355 466 355 466 C355 466 349 462 349 459Z" fill="none" stroke="#3DBE8B" stroke-width="1.5"/>

  <!-- FAB -->
  <circle cx="352" cy="636" r="26" fill="#3DBE8B"/>
  <line x1="352" y1="624" x2="352" y2="648" stroke="white" stroke-width="2.5" stroke-linecap="round"/>
  <line x1="340" y1="636" x2="364" y2="636" stroke="white" stroke-width="2.5" stroke-linecap="round"/>

  <!-- Bottom nav -->
  <rect x="0" y="700" width="390" height="80" fill="white"/>
  <line x1="0" y1="700" x2="390" y2="700" stroke="#F3F4F6" stroke-width="1"/>
  <!-- Home -->
  <path d="M22 734 L39 720 L56 734" stroke="#9CA3AF" stroke-width="1.5" fill="none" stroke-linecap="round" stroke-linejoin="round"/>
  <path d="M26 732 L26 750 L52 750 L52 732" stroke="#9CA3AF" stroke-width="1.5" fill="none" stroke-linejoin="round"/>
  <rect x="33" y="739" width="12" height="11" rx="1" fill="none" stroke="#9CA3AF" stroke-width="1.5"/>
  <text x="39" y="767" font-size="10" fill="#9CA3AF" text-anchor="middle">Home</text>
  <!-- Requests (active) -->
  <rect x="107" y="722" width="20" height="24" rx="3" fill="none" stroke="#3DBE8B" stroke-width="1.5"/>
  <line x1="111" y1="730" x2="123" y2="730" stroke="#3DBE8B" stroke-width="1"/><line x1="111" y1="736" x2="123" y2="736" stroke="#3DBE8B" stroke-width="1"/><line x1="111" y1="742" x2="119" y2="742" stroke="#3DBE8B" stroke-width="1"/>
  <text x="117" y="767" font-size="10" fill="#3DBE8B" font-weight="700" text-anchor="middle">Requests</text>
  <!-- Messages -->
  <path d="M183 720 Q183 718 185 718 L211 718 Q213 718 213 720 L213 734 Q213 736 211 736 L198 736 L192 742 L192 736 L185 736 Q183 736 183 734 Z" stroke="#9CA3AF" stroke-width="1.5" fill="none"/>
  <text x="197" y="767" font-size="10" fill="#9CA3AF" text-anchor="middle">Messages</text>
  <!-- Feed -->
  <line x1="267" y1="722" x2="289" y2="722" stroke="#9CA3AF" stroke-width="2" stroke-linecap="round"/>
  <line x1="267" y1="730" x2="289" y2="730" stroke="#9CA3AF" stroke-width="2" stroke-linecap="round"/>
  <line x1="267" y1="738" x2="289" y2="738" stroke="#9CA3AF" stroke-width="2" stroke-linecap="round"/>
  <text x="278" y="767" font-size="10" fill="#9CA3AF" text-anchor="middle">Feed</text>
  <!-- Profile -->
  <circle cx="351" cy="728" r="7" fill="none" stroke="#9CA3AF" stroke-width="1.5"/>
  <path d="M339 746 Q339 738 351 738 Q363 738 363 746" stroke="#9CA3AF" stroke-width="1.5" fill="none"/>
  <text x="351" y="767" font-size="10" fill="#9CA3AF" text-anchor="middle">Profile</text>
</svg>
